<svg width="15" height="13" viewBox="0 0 15 13" fill="none" xmlns="http://www.w3.org/2000/svg">
<path fill-rule="evenodd" clip-rule="evenodd" d="M12.2083 7.19258L8.18672 11.4446C7.89295 11.7552 7.89253 12.2577 8.18541 12.5673C8.48034 12.8792 8.95374 12.8764 9.24735 12.566L14.5479 6.96172L14.5485 6.96102L14.5492 6.96033C14.6964 6.80465 14.7695 6.60193 14.7692 6.39932C14.7685 6.1962 14.6954 5.99353 14.5492 5.83892L14.5485 5.83823L14.5479 5.83754L9.24735 0.233296C8.95358 -0.0773101 8.4783 -0.0777572 8.18541 0.23191C7.89049 0.543736 7.89312 1.04427 8.18672 1.3547L12.2083 5.60668H0.75105C0.338184 5.60668 0 5.96169 0 6.39963C0 6.84062 0.336256 7.19258 0.75105 7.19258H12.2083Z" fill="#141000"/>
</svg>
