<svg width="12" height="15" viewBox="0 0 12 15" fill="none" xmlns="http://www.w3.org/2000/svg">
<path d="M0 0H5.04244C7.33885 0 9.00601 0.302294 10.0439 0.906881C11.0818 1.51147 11.6008 2.47376 11.6008 3.79374C11.6367 4.57727 11.3979 5.35056 10.92 5.99825C10.7086 6.27461 10.4392 6.50871 10.1279 6.68657C9.81653 6.86443 9.46963 6.9824 9.10791 7.03344V7.1355C10.1353 7.3474 10.8707 7.74397 11.314 8.32523C11.8009 9.01159 12.0393 9.82347 11.9947 10.6435C12.027 11.2579 11.8982 11.8705 11.6195 12.429C11.3407 12.9875 10.9202 13.4754 10.3937 13.8511C9.32641 14.617 7.87671 15 6.04462 15H0V0ZM3.43516 5.93701H5.43008C6.36083 5.93701 7.03525 5.80385 7.45336 5.53752C7.67106 5.38436 7.84312 5.18251 7.95338 4.95094C8.06363 4.71936 8.10846 4.46566 8.08366 4.21365C8.10494 3.96946 8.05257 3.7246 7.93239 3.50632C7.81221 3.28804 7.62892 3.10489 7.40293 2.97725C6.94281 2.72842 6.22216 2.604 5.24099 2.604H3.43516V5.93701ZM3.43516 8.45937V12.3639H5.67275C6.6182 12.3639 7.31574 12.1967 7.76536 11.8624C7.99896 11.6722 8.18153 11.4344 8.29858 11.1676C8.41564 10.9009 8.46398 10.6126 8.43978 10.3256C8.43978 9.08145 7.47962 8.45937 5.55929 8.45937H3.43516Z" fill="#0095F8"/>
</svg>
