<svg width="18" height="15" viewBox="0 0 18 15" fill="none" xmlns="http://www.w3.org/2000/svg">
<path fill-rule="evenodd" clip-rule="evenodd" d="M18 2.25641C18 1.02564 17 0 15.7436 0H2.25641C1.02564 0 0 0.999997 0 2.25641V12.7436C0 13.9744 1 15 2.25641 15H15.7436C16.9744 15 18 14 18 12.7436V2.25641ZM15.7436 1.51282C16.1538 1.51282 16.4872 1.84615 16.4872 2.25641V6.43589L14.5385 4.48718C13.9487 3.89744 13 3.89744 12.4103 4.48718L8.23077 8.66666L7.05128 7.48717C6.46154 6.89743 5.51282 6.89743 4.92308 7.48717L1.48718 10.9231V2.23076C1.48718 1.82051 1.82051 1.48718 2.23077 1.48718H15.7436V1.51282ZM1.53846 13.0256L6 8.5641L8.25641 10.8205L13.5128 5.5641L16.5128 8.5641V12.7436C16.5128 13.1538 16.1795 13.4872 15.7692 13.4872H2.28205C1.92308 13.5128 1.66667 13.3077 1.53846 13.0256ZM6 4.51281C6 3.6923 5.33333 3.02564 4.51282 3.02564C3.69231 3.02564 3.02564 3.6923 3.02564 4.51281C3.02564 5.33333 3.69231 6 4.51282 6C5.33333 6.02564 6 5.33333 6 4.51281Z" fill="#18120A"/>
</svg>
