<svg width="5" height="15" viewBox="0 0 5 15" fill="none" xmlns="http://www.w3.org/2000/svg">
<path d="M3.55173 3.0195C2.94731 2.9085 2.364 3.2625 2.244 3.804L0.0218681 13.804C-0.0986825 14.3455 0.291302 14.8725 0.892944 14.9805C0.96683 14.994 1.04016 15 1.11238 15C1.63125 15 2.09567 14.671 2.20067 14.196L4.4228 4.196C4.54335 3.6545 4.15337 3.1275 3.55173 3.0195ZM3.88893 0C3.27507 0 2.77787 0.4475 2.77787 1C2.77787 1.5525 3.27507 2 3.88893 2C4.5028 2 5 1.5525 5 1C5 0.4475 4.5028 0 3.88893 0Z" fill="#18120A"/>
</svg>
