<svg width="15" height="15" viewBox="0 0 15 15" fill="none" xmlns="http://www.w3.org/2000/svg">
<path d="M13.6377 7.05352L12.3916 5.8066C12.1382 5.55299 11.7369 5.55299 11.5046 5.8066C11.2512 6.06021 11.2512 6.46176 11.5046 6.69424L12.7506 7.94116C14.06 9.25148 14.06 11.4072 12.7506 12.7598C11.4412 14.0701 9.28707 14.0701 7.93543 12.7598L6.68939 11.5128C6.43596 11.2592 6.03469 11.2592 5.80238 11.5128C5.54895 11.7664 5.54895 12.168 5.80238 12.4005L7.04842 13.6474C7.95655 14.5562 9.16035 15 10.343 15C11.5468 15 12.7295 14.5562 13.6377 13.6474C15.4539 11.8087 15.4539 8.84993 13.6377 7.05352Z" fill="#18120A"/>
<path d="M7.04858 2.23494L8.29462 3.48186C8.54805 3.73547 8.94932 3.73547 9.18163 3.48186C9.43506 3.22825 9.43506 2.8267 9.18163 2.59422L7.93559 1.34731C6.09821 -0.449102 3.1415 -0.449102 1.34636 1.34731C-0.448786 3.18598 -0.448786 6.14477 1.34636 7.94118L2.5924 9.18809C2.71911 9.3149 2.88807 9.3783 3.0359 9.3783C3.20486 9.3783 3.35269 9.3149 3.47941 9.18809C3.73284 8.93448 3.73284 8.53293 3.47941 8.30046L2.23337 7.05354C0.923971 5.74322 0.923971 3.58753 2.23337 2.23494C3.56389 0.924621 5.71806 0.924621 7.04858 2.23494Z" fill="#18120A"/>
<path d="M9.09763 9.73759C9.26658 9.73759 9.41442 9.67419 9.54113 9.54738C9.79456 9.29377 9.79456 8.89222 9.54113 8.65975L6.33099 5.44735C6.07756 5.19374 5.67629 5.19374 5.44398 5.44735C5.19055 5.70096 5.19055 6.10251 5.44398 6.33499L8.65412 9.54738C8.78084 9.67419 8.92867 9.73759 9.09763 9.73759Z" fill="#18120A"/>
</svg>
