<svg width="15" height="12" viewBox="0 0 15 12" fill="none" xmlns="http://www.w3.org/2000/svg">
<path d="M0.976947 1.99714H14.0231C14.5636 1.99714 15 1.55104 15 0.998571C15 0.446097 14.5636 0 14.0231 0H0.976947C0.436437 0 0 0.446097 0 0.998571C0 1.55104 0.436437 1.99714 0.976947 1.99714Z" fill="#18120A"/>
<path d="M0.976947 6.9969H14.0231C14.5636 6.9969 15 6.5508 15 5.99833C15 5.44585 14.5636 4.99976 14.0231 4.99976H0.976947C0.436437 4.99976 0 5.44585 0 5.99833C0 6.5508 0.436437 6.9969 0.976947 6.9969Z" fill="#18120A"/>
<path d="M0.976947 11.9999H14.0231C14.5636 11.9999 15 11.5539 15 11.0014C15 10.4489 14.5636 10.0028 14.0231 10.0028H0.976947C0.436437 10.0028 0 10.4489 0 11.0014C0 11.5539 0.436437 11.9999 0.976947 11.9999Z" fill="#18120A"/>
</svg>
