<svg width="22" height="15" viewBox="0 0 22 15" fill="none" xmlns="http://www.w3.org/2000/svg">
<path d="M17.2225 5.37646C17.723 4.46643 18.633 3.48815 20.1801 2.55537C20.6123 2.30512 20.8854 1.8501 20.8854 1.37234C20.8854 0.394058 19.8843 -0.288462 18.9743 0.12105C16.3352 1.28134 11.9443 4.17067 11.9443 10.1541C11.9443 12.8387 14.1057 15 16.7902 15C19.4748 15 21.6134 12.8387 21.6134 10.1769C21.6134 7.65153 19.6796 5.60397 17.2225 5.37646Z" fill="#18120A"/>
<path d="M5.25541 5.37646C5.75592 4.46643 6.66595 3.48815 8.213 2.55537C8.64526 2.30512 8.91827 1.8501 8.91827 1.37234C8.91827 0.394058 7.91724 -0.288462 7.00721 0.12105C4.39088 1.28134 0 4.17067 0 10.1541C0 12.8387 2.16132 15 4.82315 15C7.48498 15 9.66904 12.8387 9.66904 10.1541C9.66904 7.65153 7.73523 5.60397 5.25541 5.37646Z" fill="#18120A"/>
</svg>
