<svg width="21" height="21" viewBox="0 0 21 21" fill="none" xmlns="http://www.w3.org/2000/svg">
<path fill-rule="evenodd" clip-rule="evenodd" d="M9.42392 0.666656C9.25508 0.666645 9.08957 0.713647 8.94594 0.802397C8.80231 0.891147 8.68623 1.01814 8.61071 1.16914L7.71582 2.96069C7.38244 3.07579 7.05857 3.21184 6.74281 3.36907L4.83585 2.73342C4.67562 2.68009 4.5037 2.67244 4.33937 2.71133C4.17504 2.75022 4.02479 2.8341 3.90545 2.95359L2.61994 4.2391C2.50046 4.35843 2.41657 4.50869 2.37768 4.67302C2.33879 4.83735 2.34644 5.00927 2.39977 5.1695L3.03542 7.07291C2.88099 7.38798 2.74686 7.71175 2.63414 8.04414L0.835494 8.94436C0.684489 9.01988 0.557498 9.13596 0.468749 9.27959C0.379999 9.42322 0.332996 9.58873 0.333008 9.75757V11.5757C0.332996 11.7446 0.379999 11.9101 0.468749 12.0537C0.557498 12.1974 0.684489 12.3134 0.835494 12.389L2.62704 13.2838C2.74209 13.6171 2.87836 13.9411 3.03542 14.2569L2.39977 16.1638C2.34644 16.324 2.33879 16.496 2.37768 16.6603C2.41657 16.8246 2.50046 16.9749 2.61994 17.0942L3.90545 18.3797C4.02479 18.4992 4.17504 18.5831 4.33937 18.622C4.5037 18.6609 4.67562 18.6532 4.83585 18.5999L6.73926 17.9642C7.05444 18.1185 7.37811 18.2529 7.71049 18.3655L8.61071 20.1642C8.68623 20.3152 8.80231 20.4422 8.94594 20.5309C9.08957 20.6197 9.25508 20.6667 9.42392 20.6667H11.2421C11.4109 20.6667 11.5764 20.6197 11.7201 20.5309C11.8637 20.4422 11.9798 20.3152 12.0553 20.1642L12.9502 18.3726C13.2836 18.2575 13.6074 18.1215 13.9232 17.9642L15.8302 18.5999C15.9904 18.6532 16.1623 18.6609 16.3266 18.622C16.491 18.5831 16.6412 18.4992 16.7606 18.3797L18.0461 17.0942C18.1656 16.9749 18.2494 16.8246 18.2883 16.6603C18.3272 16.496 18.3196 16.324 18.2662 16.1638L17.6306 14.2604C17.785 13.9453 17.9192 13.6216 18.0319 13.2892L19.8305 12.389C19.9815 12.3134 20.1085 12.1974 20.1973 12.0537C20.286 11.9101 20.333 11.7446 20.333 11.5757V9.75757C20.333 9.58873 20.286 9.42322 20.1973 9.27959C20.1085 9.13596 19.9815 9.01988 19.8305 8.94436L18.039 8.04947C17.9239 7.71618 17.7877 7.39222 17.6306 7.07646L18.2662 5.1695C18.3196 5.00927 18.3272 4.83735 18.2883 4.67302C18.2494 4.50869 18.1656 4.35843 18.0461 4.2391L16.7606 2.95359C16.6412 2.8341 16.491 2.75022 16.3266 2.71133C16.1623 2.67244 15.9904 2.68009 15.8302 2.73342L13.9268 3.36907C13.6116 3.21445 13.2879 3.08046 12.9555 2.96779L12.0553 1.16914C11.9798 1.01814 11.8637 0.891147 11.7201 0.802397C11.5764 0.713647 11.4109 0.666645 11.2421 0.666656H9.42392ZM10.333 7.03029C11.2974 7.03029 12.2224 7.41341 12.9043 8.09536C13.5863 8.77731 13.9694 9.70223 13.9694 10.6667C13.9694 11.6311 13.5863 12.556 12.9043 13.238C12.2224 13.9199 11.2974 14.303 10.333 14.303C9.36858 14.303 8.44366 13.9199 7.76171 13.238C7.07976 12.556 6.69664 11.6311 6.69664 10.6667C6.69664 9.70223 7.07976 8.77731 7.76171 8.09536C8.44366 7.41341 9.36858 7.03029 10.333 7.03029Z" fill="#141000" fill-opacity="0.6"/>
</svg>
