<svg width="14" height="21" viewBox="0 0 14 21" fill="none" xmlns="http://www.w3.org/2000/svg">
<path d="M10.9326 3.28792C10.2064 3.24368 9.4907 3.48046 8.93076 3.95022C8.37082 4.41998 8.00853 5.08755 7.9174 5.81751C7.82626 6.54747 8.0131 7.28516 8.44 7.88093C8.86691 8.4767 9.50192 8.88595 10.2162 9.02564V10.1449C10.2162 10.5292 10.0653 10.8977 9.79658 11.1695C9.5279 11.4412 9.16348 11.5939 8.78349 11.5939H5.36644C4.8626 11.594 4.36795 11.7303 3.93372 11.9887V6.3705C4.609 6.19417 5.19752 5.77483 5.58895 5.19107C5.98037 4.60732 6.14785 3.89923 6.05997 3.19954C5.97209 2.49985 5.63489 1.85658 5.11158 1.39033C4.58828 0.924076 3.91478 0.66684 3.21735 0.66684C2.51992 0.66684 1.84643 0.924076 1.32312 1.39033C0.799815 1.85658 0.462618 2.49985 0.374739 3.19954C0.286859 3.89923 0.45433 4.60732 0.845759 5.19107C1.23719 5.77483 1.8257 6.19417 2.50099 6.3705V14.9264C1.82082 15.1028 1.22768 15.5242 0.832885 16.1114C0.438087 16.6987 0.268762 17.4115 0.356682 18.116C0.444603 18.8205 0.783726 19.4684 1.31042 19.9381C1.83711 20.4077 2.51516 20.6668 3.21735 20.6668C3.91954 20.6668 4.5976 20.4077 5.12429 19.9381C5.65098 19.4684 5.9901 18.8205 6.07802 18.116C6.16594 17.4115 5.99662 16.6987 5.60182 16.1114C5.20702 15.5242 4.61389 15.1028 3.93372 14.9264V14.4917C3.93372 14.1074 4.08466 13.7389 4.35335 13.4672C4.62204 13.1954 4.98646 13.0428 5.36644 13.0428H8.78349C9.54346 13.0428 10.2723 12.7375 10.8097 12.194C11.3471 11.6506 11.6489 10.9135 11.6489 10.1449V9.02564C12.3632 8.88595 12.9983 8.4767 13.4252 7.88093C13.8521 7.28516 14.0389 6.54747 13.9478 5.81751C13.8566 5.08755 13.4943 4.41998 12.9344 3.95022C12.3745 3.48046 11.6588 3.24368 10.9326 3.28792ZM1.7703 3.55235C1.77383 3.26658 1.86085 2.98825 2.02041 2.75237C2.17998 2.51649 2.40495 2.3336 2.66704 2.22671C2.92913 2.11981 3.21662 2.09369 3.49335 2.15163C3.77008 2.20956 4.02369 2.34897 4.22228 2.5523C4.42086 2.75564 4.55555 3.01383 4.60939 3.29439C4.66324 3.57494 4.63384 3.86534 4.52489 4.12904C4.41595 4.39274 4.23232 4.61797 3.99711 4.7764C3.76191 4.93482 3.48562 5.01936 3.20302 5.01938C2.8214 5.01462 2.45701 4.85795 2.18883 4.58335C1.92064 4.30874 1.77027 3.93831 1.7703 3.55235ZM3.20302 19.2115C2.92045 19.208 2.64523 19.12 2.41198 18.9586C2.17874 18.7972 1.9979 18.5697 1.8922 18.3047C1.7865 18.0396 1.76067 17.7489 1.81796 17.469C1.87524 17.1892 2.01309 16.9327 2.21416 16.7319C2.41522 16.531 2.67052 16.3948 2.94794 16.3404C3.22537 16.2859 3.51252 16.3156 3.77327 16.4258C4.03403 16.536 4.25674 16.7217 4.41339 16.9596C4.57004 17.1974 4.65364 17.4768 4.65366 17.7626C4.649 18.1461 4.49606 18.5124 4.22761 18.7832C3.95915 19.054 3.59652 19.2078 3.21735 19.2115H3.20302ZM10.9326 7.6709C10.6449 7.6745 10.3627 7.59152 10.1218 7.43252C9.88093 7.27352 9.69222 7.04567 9.57967 6.77795C9.46712 6.51022 9.43583 6.21469 9.48976 5.92893C9.5437 5.64318 9.68042 5.38008 9.88257 5.1731C10.0847 4.96612 10.3431 4.82459 10.625 4.7665C10.9069 4.70841 11.1995 4.73638 11.4656 4.84687C11.7317 4.95735 11.9593 5.14535 12.1195 5.38698C12.2797 5.62861 12.3653 5.91296 12.3653 6.20387C12.3644 6.58955 12.2137 6.95944 11.9457 7.23384C11.6778 7.50825 11.3139 7.66521 10.9326 7.6709Z" fill="#141000" fill-opacity="0.6"/>
</svg>
